<?xml version="1.0" encoding="utf-8"?>
<!-- Generator: Adobe Illustrator 22.0.1, SVG Export Plug-In . SVG Version: 6.00 Build 0)  -->
<svg version="1.1" id="Livello_1" xmlns="http://www.w3.org/2000/svg" xmlns:xlink="http://www.w3.org/1999/xlink" x="0px" y="0px"
	 width="24px" height="24px" viewBox="0 0 24 24" style="enable-background:new 0 0 24 24;" xml:space="preserve">
<style type="text/css">
	.st0{fill:#FFFFFF;}
</style>
<g id="close_white">
	<path class="st0" d="M14.6,12l8.9-8.9c0.7-0.7,0.7-1.9,0-2.6s-1.9-0.7-2.6,0L12,9.4L3.1,0.5c-0.7-0.7-1.9-0.7-2.6,0s-0.7,1.8,0,2.6
		L9.4,12l-8.9,8.9c-0.7,0.7-0.7,1.9,0,2.6C0.9,23.8,1.4,24,1.8,24s0.9-0.2,1.3-0.5l8.9-8.9l8.9,8.9c0.4,0.4,0.8,0.5,1.3,0.5
		c0.5,0,0.9-0.2,1.3-0.5c0.7-0.7,0.7-1.9,0-2.6C23.5,20.9,14.6,12,14.6,12z"/>
</g>
</svg>
