<?xml version="1.0" encoding="utf-8"?>
<!-- Generator: Adobe Illustrator 22.0.1, SVG Export Plug-In . SVG Version: 6.00 Build 0)  -->
<svg version="1.1" id="Livello_1" xmlns="http://www.w3.org/2000/svg" xmlns:xlink="http://www.w3.org/1999/xlink" x="0px" y="0px"
	 width="24px" height="24px" viewBox="0 0 24 24" style="enable-background:new 0 0 24 24;" xml:space="preserve">
<style type="text/css">
	.st0{fill:#FFFFFF;}
</style>
<g id="portfolio_white">
	<path class="st0" d="M10,16v-1H3v4c0,1,1,2,2,2h14c1,0,2-1,2-2v-4h-7v1H10z M20,7h-4V5l-2-2h-4L8,5v2H4C3,7,2,8,2,9v3c0,1,1,2,2,2
		h6v-2h4v2h6c1,0,2-1,2-2V9C22,7.9,21.1,7,20,7z M14,7h-4V5h4V7z"/>
</g>
</svg>
