<?xml version="1.0" encoding="utf-8"?>
<!-- Generator: Adobe Illustrator 22.0.1, SVG Export Plug-In . SVG Version: 6.00 Build 0)  -->
<svg version="1.1" id="Livello_1" xmlns="http://www.w3.org/2000/svg" xmlns:xlink="http://www.w3.org/1999/xlink" x="0px" y="0px"
	 width="24px" height="24px" viewBox="0 0 24 24" style="enable-background:new 0 0 24 24;" xml:space="preserve">
<style type="text/css">
	.st0{fill:#FFFFFF;}
</style>
<g id="posts_white">
	<path class="st0" d="M19,4h-4.2c-0.4-1.2-1.5-2-2.8-2S9.6,2.8,9.2,4H5C4,4,3,5,3,6v14c0,1.1,0.9,2,2,2h14c1,0,2-1,2-2V6
		C21,5,20,4,19,4z M12,4c0.6,0,1,0.4,1,1s-0.4,1-1,1s-1-0.4-1-1S11.4,4,12,4z M14,18H7v-2h7V18z M17,14H7v-2h10V14z M17,10H7V8h10
		V10z"/>
</g>
</svg>
