<?xml version="1.0" encoding="utf-8"?>
<!-- Generator: Adobe Illustrator 22.0.1, SVG Export Plug-In . SVG Version: 6.00 Build 0)  -->
<svg version="1.1" id="Livello_1" xmlns="http://www.w3.org/2000/svg" xmlns:xlink="http://www.w3.org/1999/xlink" x="0px" y="0px"
	 width="24px" height="24px" viewBox="0 0 24 24" style="enable-background:new 0 0 24 24;" xml:space="preserve">
<style type="text/css">
	.st0{fill:#555555;}
</style>
<g id="rss">
	<path class="st0" d="M8.2,18.3c0,0.7-0.2,1.2-0.7,1.7c-0.5,0.5-1,0.7-1.7,0.7S4.6,20.4,4.1,20c-0.5-0.5-0.7-1-0.7-1.7
		s0.2-1.2,0.7-1.7s1-0.7,1.7-0.7s1.2,0.2,1.7,0.7C7.9,17,8.2,17.6,8.2,18.3z M14.6,19.8c0,0.2-0.1,0.4-0.2,0.6
		c-0.1,0.2-0.3,0.3-0.6,0.3h-1.7c-0.2,0-0.4-0.1-0.5-0.2c-0.1-0.1-0.2-0.3-0.2-0.5C11.1,18,10.3,16.4,9,15s-3-2.1-4.9-2.3
		c-0.2,0-0.4-0.1-0.5-0.2c-0.1-0.1-0.2-0.3-0.2-0.5v-1.7c0-0.2,0.1-0.4,0.3-0.6C3.8,9.5,4,9.5,4.2,9.5h0.1c1.3,0.1,2.6,0.4,3.8,1
		s2.3,1.3,3.2,2.3c0.9,0.9,1.7,2,2.3,3.2C14.1,17.2,14.4,18.5,14.6,19.8z M20.9,19.8c0,0.2-0.1,0.4-0.2,0.6
		c-0.1,0.2-0.3,0.2-0.6,0.2h-1.8c-0.2,0-0.4-0.1-0.5-0.2s-0.2-0.3-0.2-0.5c-0.1-1.8-0.5-3.5-1.3-5.1c-0.7-1.6-1.7-3-2.9-4.2
		s-2.6-2.1-4.2-2.9S5.9,6.6,4.1,6.5c-0.2,0-0.4-0.1-0.5-0.2S3.4,5.9,3.4,5.7V3.9c0-0.2,0.1-0.4,0.2-0.6C3.8,3.2,4,3.1,4.2,3.1h0
		c2.2,0.1,4.3,0.6,6.2,1.5s3.8,2.1,5.3,3.7c1.6,1.5,2.8,3.3,3.7,5.3C20.3,15.5,20.8,17.6,20.9,19.8z"/>
</g>
</svg>
