<?xml version="1.0" encoding="utf-8"?>
<!-- Generator: Adobe Illustrator 22.0.1, SVG Export Plug-In . SVG Version: 6.00 Build 0)  -->
<svg version="1.1" id="Livello_1" xmlns="http://www.w3.org/2000/svg" xmlns:xlink="http://www.w3.org/1999/xlink" x="0px" y="0px"
	 width="24px" height="24px" viewBox="0 0 24 24" style="enable-background:new 0 0 24 24;" xml:space="preserve">
<style type="text/css">
	.st0{fill:#FF7500;stroke:#FF7500;}
	.st1{fill:none;stroke:#FF7500;}
</style>
<g id="snoo_orange">
	<path class="st0" d="M15.2,14c1.5,0,2.6,1.4,2.6,3.2c0,1.8-1.2,3.2-2.6,3.2s-2.6-1.4-2.6-3.2C12.6,15.4,13.7,14,15.2,14z M11,23.7
		c0-0.1,0.1-0.2,0.1-0.4c0-0.8-0.8-1.5-1.8-1.5s-1.8,0.7-1.8,1.5c0,0.1,0,0.3,0.1,0.4H11z M17.4,23.7c0-0.1,0.1-0.2,0.1-0.4
		c0-0.8-0.8-1.5-1.8-1.5s-1.8,0.7-1.8,1.5c0,0.1,0,0.3,0.1,0.4H17.4z M7.5,7.2c0,0.9-0.7,1.6-1.6,1.6C5,8.8,4.3,8.1,4.3,7.2
		S5,5.6,5.9,5.6C6.8,5.6,7.5,6.3,7.5,7.2z M20.8,7.2c0,0.9-0.7,1.6-1.6,1.6c-0.9,0-1.6-0.7-1.6-1.6s0.7-1.6,1.6-1.6
		C20,5.6,20.8,6.3,20.8,7.2z M9.7,14c1.5,0,2.6,1.4,2.6,3.2c0,1.8-1.2,3.2-2.6,3.2c-1.5,0-2.6-1.4-2.6-3.2C7.1,15.4,8.3,14,9.7,14z
		 M19.6,1.8c0,0.7-0.6,1.3-1.3,1.3c-0.7,0-1.3-0.6-1.3-1.3c0-0.7,0.6-1.3,1.3-1.3C19,0.5,19.6,1.1,19.6,1.8z M19.8,9.4
		c0,2.6-3.3,4.8-7.3,4.8c-4.1,0-7.3-2.1-7.3-4.8s3.3-4.8,7.3-4.8C16.5,4.6,19.8,6.8,19.8,9.4z"/>
	<path class="st1" d="M17,1.5l-3.2-0.8l-1.2,3.8"/>
	<path class="st0" d="M11.6,23.7h1.8c1.6-0.8,2.8-3.8,2.8-7.4c0-4.2-1.6-7.6-3.7-7.6c-2,0-3.7,3.4-3.7,7.6
		C8.8,19.9,10,22.9,11.6,23.7z"/>
</g>
</svg>
