<?xml version="1.0" encoding="utf-8"?>
<!-- Generator: Adobe Illustrator 22.0.1, SVG Export Plug-In . SVG Version: 6.00 Build 0)  -->
<svg version="1.1" id="Livello_1" xmlns="http://www.w3.org/2000/svg" xmlns:xlink="http://www.w3.org/1999/xlink" x="0px" y="0px"
	 width="24px" height="24px" viewBox="0 0 24 24" style="enable-background:new 0 0 24 24;" xml:space="preserve">
<style type="text/css">
	.st0{fill:#E61A75;}
</style>
<g id="tag_pink">
	<path class="st0" d="M23.8,0.9c-0.1-0.1-0.3-0.2-0.5-0.2l-9.4,0.2c-0.8,0-1.6,0.4-2.2,0.9l-9.9,9.9c-0.7,0.7-1.1,1.7-1.1,2.7
		c0,0.9,0.4,1.8,1,2.5L7.8,23c0.7,0.7,1.6,1,2.5,1c1,0,1.9-0.4,2.7-1.1l9.9-9.9c0.6-0.6,0.9-1.4,0.9-2.2L24,1.4
		C24,1.2,23.9,1,23.8,0.9z M18.6,9.1c-0.4,0.4-1,0.6-1.5,0.6c-0.5,0-1.1-0.2-1.5-0.6C15.2,8.7,15,8.2,15,7.6c0-0.5,0.2-1.1,0.6-1.5
		c0.1-0.8,2.2-0.2,3,0C19,6.5,19.2,7,19.2,7.6C19.2,8.1,19,8.7,18.6,9.1z"/>
</g>
</svg>
