<?xml version="1.0" encoding="utf-8"?>
<!-- Generator: Adobe Illustrator 22.0.1, SVG Export Plug-In . SVG Version: 6.00 Build 0)  -->
<svg version="1.1" id="Livello_1" xmlns="http://www.w3.org/2000/svg" xmlns:xlink="http://www.w3.org/1999/xlink" x="0px" y="0px"
	 width="24px" height="24px" viewBox="0 0 24 24" style="enable-background:new 0 0 24 24;" xml:space="preserve">
<style type="text/css">
	.st0{fill:#555555;}
</style>
<g id="twitter">
	<path class="st0" d="M20.5,23.2h-16c-1.5,0-2.7-1.2-2.7-2.7v-16C1.8,3,3,1.8,4.5,1.8h16c1.5,0,2.7,1.2,2.7,2.7v16
		C23.2,22,22,23.2,20.5,23.2z M10,17.9c4.3,0,7.8-3.4,7.8-7.7c0,0,0-0.1,0-0.1c0-0.1,0-0.2,0-0.3c0.5-0.4,1-0.9,1.4-1.4
		c-0.5,0.2-1,0.4-1.6,0.4c0.6-0.3,1-0.9,1.2-1.5c-0.6,0.3-1.2,0.6-1.8,0.7c-1-1.1-2.8-1.2-3.9-0.1c-0.6,0.5-0.9,1.3-0.9,2
		c0,0.2,0,0.4,0.1,0.6c-2.2-0.1-4.3-1.1-5.7-2.9C6,8.8,6.4,10.4,7.6,11.2c-0.4,0-0.9-0.1-1.2-0.3v0c0,1.3,0.9,2.4,2.2,2.7
		c-0.2,0.1-0.5,0.1-0.7,0.1c-0.2,0-0.3,0-0.5,0c0.4,1.1,1.4,1.9,2.6,1.9c-1,0.8-2.2,1.2-3.4,1.2c-0.2,0-0.4,0-0.7,0
		C7.1,17.5,8.5,18,10,17.9"/>
</g>
</svg>
